Coordinates
version=1
nRows=10
nColumns=63
inDegrees=yes

Units are S.I. units (second, meters, Newtons, ...)
If the header above contains a line with 'inDegrees', this indicates whether rotational values are in degrees (yes) or radians (no).

endheader
time	pelvis_tilt	pelvis_list	pelvis_rotation	pelvis_tx	pelvis_ty	pelvis_tz	hip_flexion_r	hip_adduction_r	hip_rotation_r	knee_angle_r	knee_angle_r_beta	ankle_angle_r	subtalar_angle_r	mtp_angle_r	hip_flexion_l	hip_adduction_l	hip_rotation_l	knee_angle_l	knee_angle_l_beta	ankle_angle_l	subtalar_angle_l	mtp_angle_l	L5_S1_Flex_Ext	L5_S1_Lat_Bending	L5_S1_axial_rotation	L4_L5_Flex_Ext	L4_L5_Lat_Bending	L4_L5_axial_rotation	L3_L4_Flex_Ext	L3_L4_Lat_Bending	L3_L4_axial_rotation	L2_L3_Flex_Ext	L2_L3_Lat_Bending	L2_L3_axial_rotation	L1_L2_Flex_Ext	L1_L2_Lat_Bending	L1_L2_axial_rotation	L1_T12_Flex_Ext	L1_T12_Lat_Bending	L1_T12_axial_rotation	Abs_r3	Abs_r2	Abs_r1	Abs_t1	Abs_t2	neck_flexion	neck_bending	neck_rotation	arm_flex_r	arm_add_r	arm_rot_r	elbow_flex_r	pro_sup_r	wrist_flex_r	wrist_dev_r	arm_flex_l	arm_add_l	arm_rot_l	elbow_flex_l	pro_sup_l	wrist_flex_l	wrist_dev_l
      1.38333333	      0.36407376	     -1.17545589	     87.93179277	      0.16696329	      0.80200906	      0.74047967	      4.40427524	      0.36797678	    -12.86810758	     16.73957799	      0.29216075	     36.68686405	     18.61201707	      0.00000000	     -0.60083248	     -0.76020699	     -0.83258094	      9.83873763	      0.17171837	     23.60404008	    -13.80243858	      0.00000000	     -0.26501855	      0.07566518	     -0.35135474	     -0.49216596	      0.10063469	     -0.37331441	     -0.43539898	      0.18397231	     -0.37331441	     -0.30288970	      0.18397231	     -0.30743539	     -0.24609623	      0.15429643	     -0.28547572	     -0.15143160	      0.11720536	     -0.26351605	     -1.89300102	      0.85593961	     -1.95412963	      0.00000000	      0.00000000	     15.41169850	      5.94436111	    -10.80926928	     -0.04133945	    -14.06984200	     59.32687724	     11.03311191	     11.99853248	     -0.52121684	      0.87279867	      4.76125780	    -12.62992759	    118.77972732	      7.05771905	     20.96330571	    -10.96404828	     -4.37376967
      1.40000000	      0.74505257	     -1.28830288	     88.06757584	      0.16625555	      0.80271383	      0.73976198	      4.22723239	      0.87423785	    -12.63883857	     16.12516985	      0.28143731	     36.95991719	     18.64934953	      0.00000000	     -0.74087821	     -1.08441768	     -0.52935556	      9.46537368	      0.16520194	     23.15570713	    -14.42806622	      0.00000000	     -0.23034186	      0.12688645	     -0.42703140	     -0.42776787	      0.16875897	     -0.45372087	     -0.37842864	      0.30851170	     -0.45372087	     -0.26325771	      0.30851170	     -0.37365248	     -0.21389545	      0.25874684	     -0.34696302	     -0.13161734	      0.19654710	     -0.32027355	     -1.64530886	      1.43536485	     -2.37502056	      0.00000000	      0.00000000	     14.99072807	      5.67307523	    -10.85173561	     -0.44881343	    -14.86543732	     68.96084323	     11.33288471	     16.38527859	      0.00841101	     -2.92744384	      4.61685152	    -12.16768092	    121.22812824	      6.66878051	     19.56884176	    -11.59902879	     -6.18923168
      1.41666667	      1.01261613	     -1.37441928	     88.27224831	      0.16577983	      0.80380249	      0.73905133	      3.99537546	      1.25429818	    -12.68660103	     15.50184398	      0.27055822	     36.92724558	     18.65442256	      0.00000000	     -0.93747721	     -1.32114932	     -0.20540653	      8.98353657	      0.15679229	     22.58503026	    -14.86965584	      0.00000000	     -0.19579199	      0.15886729	     -0.53585867	     -0.36360531	      0.21129349	     -0.56934983	     -0.32166667	      0.38626992	     -0.56934983	     -0.22377067	      0.38626992	     -0.46887633	     -0.18181244	      0.32396217	     -0.43538517	     -0.11187554	      0.24608543	     -0.40189400	     -1.39852263	      1.79713851	     -2.98028515	      0.00000000	      0.00000000	     14.50149333	      5.21446780	    -11.36536400	     -0.47212622	    -15.39438543	     78.02367455	     11.80957147	     18.15372286	      0.24595886	     -6.80905969	      4.59590209	    -11.69920019	    125.43493280	      6.11977337	     19.35162612	    -12.68559225	     -7.19795242
      1.43333333	      1.11637448	     -1.52025011	     88.45383530	      0.16558296	      0.80504795	      0.73847887	      3.82269197	      1.45868998	    -12.67094271	     14.88234637	      0.25974594	     36.53793327	     18.63843283	      0.00000000	     -1.05643946	     -1.40591075	      0.01338231	      8.49050119	      0.14818720	     21.99485052	    -15.11632264	      0.00000000	     -0.15162562	      0.16789316	     -0.66993368	     -0.28158394	      0.22329790	     -0.71180454	     -0.24910573	      0.40821543	     -0.71180454	     -0.17329292	      0.40821543	     -0.58619197	     -0.14079955	      0.34236773	     -0.54432112	     -0.08663888	      0.26006651	     -0.50245026	     -1.08304663	      1.89924102	     -3.72597017	      0.00000000	      0.00000000	     14.03156814	      4.69663516	    -12.11116388	      0.54375064	    -15.55567465	     95.38982636	     12.08680040	      7.67923369	      1.07282556	    -10.81134049	      4.57943208	    -11.19442674	    135.51382267	      5.12127201	     15.12838468	    -13.46352140	     -7.73976506
      1.45000000	      1.05067022	     -1.68186038	     88.58152939	      0.16571340	      0.80629885	      0.73796355	      3.72250482	      1.46011517	    -12.85005691	     14.41208791	      0.25153839	     35.97396999	     18.62414601	      0.00000000	     -1.12091787	     -1.34314536	     -0.07507558	      8.06115942	      0.14069377	     21.41374742	    -15.09133962	      0.00000000	     -0.10220582	      0.15467947	     -0.80825090	     -0.18980644	      0.20572369	     -0.85876659	     -0.16791395	      0.37608766	     -0.85876659	     -0.11681104	      0.37608766	     -0.70721954	     -0.09490833	      0.31542237	     -0.65670386	     -0.05840041	      0.23959849	     -0.60618818	     -0.73004598	      1.74976507	     -4.49524905	      0.00000000	      0.00000000	     13.63685136	      4.15415159	    -12.92775091	      0.50278644	    -15.39404213	     97.74523967	     12.24773887	      9.41453098	      1.63862169	    -13.30918267	      4.33996572	    -10.94325035	    139.52879187	      4.31688499	     18.83241195	    -14.55007938	     -7.69749429
      1.46666667	      0.85107526	     -1.88613920	     88.65464793	      0.16644567	      0.80747148	      0.73781084	      3.75221082	      1.32544686	    -13.05342507	     14.08826773	      0.24588666	     35.30863862	     18.59074690	      0.00000000	     -1.11128422	     -1.18152011	     -0.20761769	      7.63654174	      0.13328280	     20.71864834	    -14.99205409	      0.00000000	     -0.05371540	      0.11757938	     -0.92502338	     -0.09975486	      0.15638057	     -0.98283734	     -0.08824903	      0.28588250	     -0.98283734	     -0.06139133	      0.28588250	     -0.80939546	     -0.04988012	      0.23976787	     -0.75158150	     -0.03069298	      0.18213046	     -0.69376754	     -0.38368371	      1.33008146	     -5.14470254	      0.00000000	      0.00000000	     13.47834924	      3.65297169	    -13.98876382	      0.55786053	    -15.04740497	     99.48365178	     12.25553596	     10.47977491	      2.20628446	    -15.51458200	      4.08587373	    -10.86168704	    143.63349750	      3.44662674	     22.58450683	    -15.12025772	     -7.41969350
      1.48333333	      0.51468969	     -2.09581829	     88.57897102	      0.16742499	      0.80851813	      0.73795912	      3.87555141	      1.03061464	    -13.12504542	     13.89789067	      0.24256395	     34.60772734	     18.54524749	      0.00000000	     -0.98894003	     -0.88385860	     -0.54486208	      7.40235699	      0.12919550	     20.05753944	    -14.77245591	      0.00000000	     -0.01519079	      0.06039943	     -0.99141771	     -0.02821082	      0.08033124	     -1.05338132	     -0.02495695	      0.14685517	     -1.05338132	     -0.01736156	      0.14685517	     -0.86749050	     -0.01410617	      0.12316651	     -0.80552689	     -0.00868002	      0.09355872	     -0.74356329	     -0.10850631	      0.68325042	     -5.51396790	      0.00000000	      0.00000000	     13.76334645	      3.40280036	    -15.24273348	      0.83483527	    -14.66991053	    101.20228247	     12.38390395	     10.99948203	      2.44529726	    -17.01036029	      3.95518848	    -10.84021147	    147.03600676	      2.83842790	     25.63482615	    -15.04512255	     -6.30622627
      1.50000000	      0.15048257	     -2.30901814	     88.55841313	      0.16849281	      0.80931108	      0.73805115	      3.99823962	      0.70339209	    -13.25354413	     13.73868293	      0.23978525	     33.95230283	     18.46529643	      0.00000000	     -0.83541600	     -0.56577194	     -0.81770868	      7.19724859	      0.12561568	     19.37727236	    -14.57515160	      0.00000000	      0.01860427	     -0.00167588	     -1.05882473	      0.03454998	     -0.00222892	     -1.12500127	      0.03056495	     -0.00407474	     -1.12500127	      0.02126282	     -0.00407474	     -0.92647163	      0.01727592	     -0.00341746	     -0.86029509	      0.01063048	     -0.00259594	     -0.79411854	      0.13288841	     -0.01895789	     -5.88886548	      0.00000000	      0.00000000	     14.27890865	      3.54987192	    -16.11093818	      1.10309375	    -14.23149816	    101.43414575	     12.66469235	     11.21593053	      2.68997358	    -17.57512850	      3.67725684	    -11.02558262	    146.94190177	      2.81336291	     25.46549489	    -14.79783518	     -6.64021368
      1.51666667	     -0.22679545	     -2.45996172	     88.54111705	      0.16969598	      0.80988072	      0.73818872	      4.15362220	      0.32681497	    -13.51081298	     13.82808150	      0.24134555	     33.42910164	     18.39129477	      0.00000000	     -0.66981297	     -0.27633685	     -1.44017928	      7.15907866	      0.12494949	     19.06316039	    -13.74274338	      0.00000000	      0.03156565	     -0.07213411	     -1.11821571	      0.05862057	     -0.09593837	     -1.18810419	      0.05185921	     -0.17538688	     -1.18810419	      0.03607638	     -0.17538688	     -0.97843874	      0.02931186	     -0.14709588	     -0.90855026	      0.01803661	     -0.11173574	     -0.83866178	      0.22547030	     -0.81599550	     -6.21918030	      0.00000000	      0.00000000	     14.64529251	      3.36127210	    -17.86921237	      1.68789853	    -13.40477720	    104.35951287	     12.21262577	     12.74816316	      1.51074150	    -18.18714824	      3.06665180	    -11.57504880	    141.07016833	      3.53248031	     17.73890647	    -12.86884702	    -10.01693706
      1.53333333	     -0.59324244	     -2.56754093	     88.61265236	      0.17071743	      0.81036718	      0.73872633	      4.28920197	     -0.06635023	    -13.84481159	     13.96317529	      0.24370338	     32.98085955	     18.37372022	      0.00000000	     -0.49048712	      0.01547762	     -1.68694838	      7.17132769	      0.12516328	     18.70481435	    -13.27589257	      0.00000000	      0.02772373	     -0.14072741	     -1.21126215	      0.05148573	     -0.18716746	     -1.28696604	      0.04554731	     -0.34216463	     -1.28696604	      0.03168545	     -0.34216463	     -1.05985438	      0.02574425	     -0.28697133	     -0.98415050	      0.01584134	     -0.21798676	     -0.90844662	      0.19802781	     -1.59193661	     -6.73667672	      0.00000000	      0.00000000	     14.76045360	      3.06515306	    -19.74538041	      2.47494226	    -12.53565681	    106.53608951	     12.07310191	     14.16372167	     -0.13055980	    -17.11491955	      2.46723657	    -12.00780710	    133.49885077	      4.57934640	      9.65586222	     -9.55422514	    -11.79723054
